<svg width="64" height="64" viewBox="0 0 64 64" xmlns="http://www.w3.org/2000/svg">
  <!-- Base platform foundation -->
  <rect x="8" y="48" width="48" height="8" rx="2" fill="none" stroke="#D4AF37" stroke-width="2"/>
  
  <!-- Infrastructure layers -->
  <rect x="12" y="40" width="40" height="4" rx="1" fill="none" stroke="#D4AF37" stroke-width="1.5" opacity="0.8"/>
  <rect x="16" y="34" width="32" height="4" rx="1" fill="none" stroke="#D4AF37" stroke-width="1.5" opacity="0.8"/>
  
  <!-- Developer tools/services containers -->
  <rect x="14" y="22" width="12" height="8" rx="2" fill="none" stroke="#D4AF37" stroke-width="2"/>
  <rect x="30" y="22" width="12" height="8" rx="2" fill="none" stroke="#D4AF37" stroke-width="2"/>
  <rect x="46" y="22" width="12" height="8" rx="2" fill="none" stroke="#D4AF37" stroke-width="2"/>
  
  <!-- DevOps pipeline flow -->
  <circle cx="20" cy="12" r="3" fill="none" stroke="#D4AF37" stroke-width="2"/>
  <circle cx="32" cy="12" r="3" fill="none" stroke="#D4AF37" stroke-width="2"/>
  <circle cx="44" cy="12" r="3" fill="none" stroke="#D4AF37" stroke-width="2"/>
  
  <!-- Pipeline connections -->
  <line x1="23" y1="12" x2="29" y2="12" stroke="#D4AF37" stroke-width="1.5"/>
  <line x1="35" y1="12" x2="41" y2="12" stroke="#D4AF37" stroke-width="1.5"/>
  
  <!-- Pipeline arrows -->
  <path d="M 27 10 L 29 12 L 27 14" fill="none" stroke="#D4AF37" stroke-width="1.5"/>
  <path d="M 39 10 L 41 12 L 39 14" fill="none" stroke="#D4AF37" stroke-width="1.5"/>
  
  <!-- Connections from pipeline to services -->
  <line x1="20" y1="15" x2="20" y2="22" stroke="#D4AF37" stroke-width="1.5" opacity="0.7"/>
  <line x1="32" y1="15" x2="36" y2="22" stroke="#D4AF37" stroke-width="1.5" opacity="0.7"/>
  <line x1="44" y1="15" x2="52" y2="22" stroke="#D4AF37" stroke-width="1.5" opacity="0.7"/>
  
  <!-- Infrastructure connection lines -->
  <line x1="20" y1="30" x2="20" y2="34" stroke="#D4AF37" stroke-width="1" opacity="0.6"/>
  <line x1="36" y1="30" x2="36" y2="34" stroke="#D4AF37" stroke-width="1" opacity="0.6"/>
  <line x1="52" y1="30" x2="48" y2="34" stroke="#D4AF37" stroke-width="1" opacity="0.6"/>
  
  <!-- Performance/scale indicators -->
  <path d="M 18 26 L 20 24 L 22 26" fill="none" stroke="#D4AF37" stroke-width="1" opacity="0.8"/>
  <path d="M 34 26 L 36 24 L 38 26" fill="none" stroke="#D4AF37" stroke-width="1" opacity="0.8"/>
  <path d="M 50 26 L 52 24 L 54 26" fill="none" stroke="#D4AF37" stroke-width="1" opacity="0.8"/>
  
  <!-- Reliability indicators (small dots) -->
  <circle cx="18" cy="26" r="1" fill="#D4AF37" opacity="0.6"/>
  <circle cx="22" cy="26" r="1" fill="#D4AF37" opacity="0.6"/>
  <circle cx="34" cy="26" r="1" fill="#D4AF37" opacity="0.6"/>
  <circle cx="38" cy="26" r="1" fill="#D4AF37" opacity="0.6"/>
  <circle cx="50" cy="26" r="1" fill="#D4AF37" opacity="0.6"/>
  <circle cx="54" cy="26" r="1" fill="#D4AF37" opacity="0.6"/>
</svg>
